<svg width="32" height="32" viewBox="0 0 32 32" fill="none" xmlns="http://www.w3.org/2000/svg">
<path d="M3.33325 5.66699C3.33325 5.40178 3.43861 5.14742 3.62615 4.95989C3.81368 4.77235 4.06804 4.66699 4.33325 4.66699H5.07725C6.34392 4.66699 7.10392 5.51899 7.53725 6.31099C7.82659 6.83899 8.03592 7.45099 8.19992 8.00566C8.24428 8.00216 8.28876 8.00038 8.33325 8.00032H24.9973C26.1039 8.00032 26.9039 9.05899 26.5999 10.1243L24.1626 18.6697C23.9441 19.4361 23.4817 20.1105 22.8456 20.5907C22.2095 21.0709 21.4343 21.3308 20.6373 21.331H12.7066C11.9032 21.331 11.1221 21.0672 10.4833 20.5801C9.84445 20.0931 9.38325 19.4097 9.17059 18.635L8.15725 14.939L6.47725 9.27499L6.47592 9.26432C6.26792 8.50832 6.07325 7.80033 5.78259 7.27233C5.50392 6.75899 5.27992 6.66699 5.07859 6.66699H4.33325C4.06804 6.66699 3.81368 6.56164 3.62615 6.3741C3.43861 6.18656 3.33325 5.93221 3.33325 5.66699ZM10.0973 14.4537L11.0986 18.1057C11.2986 18.8283 11.9559 19.331 12.7066 19.331H20.6373C20.9995 19.331 21.3519 19.2129 21.6411 18.9947C21.9303 18.7765 22.1405 18.47 22.2399 18.1217L24.5559 10.0003H8.77992L10.0786 14.383L10.0973 14.4537Z" fill="#222222"/>
<path d="M14.6666 25.3337C14.6666 26.0409 14.3856 26.7192 13.8855 27.2193C13.3854 27.7194 12.7072 28.0003 11.9999 28.0003C11.2927 28.0003 10.6144 27.7194 10.1143 27.2193C9.6142 26.7192 9.33325 26.0409 9.33325 25.3337C9.33325 24.6264 9.6142 23.9481 10.1143 23.448C10.6144 22.9479 11.2927 22.667 11.9999 22.667C12.7072 22.667 13.3854 22.9479 13.8855 23.448C14.3856 23.9481 14.6666 24.6264 14.6666 25.3337ZM12.6666 25.3337C12.6666 25.1568 12.5963 24.9873 12.4713 24.8623C12.3463 24.7372 12.1767 24.667 11.9999 24.667C11.8231 24.667 11.6535 24.7372 11.5285 24.8623C11.4035 24.9873 11.3333 25.1568 11.3333 25.3337C11.3333 25.5105 11.4035 25.68 11.5285 25.8051C11.6535 25.9301 11.8231 26.0003 11.9999 26.0003C12.1767 26.0003 12.3463 25.9301 12.4713 25.8051C12.5963 25.68 12.6666 25.5105 12.6666 25.3337Z" fill="#222222"/>
<path d="M23.9998 25.3337C23.9998 26.0409 23.7189 26.7192 23.2188 27.2193C22.7187 27.7194 22.0404 28.0003 21.3332 28.0003C20.6259 28.0003 19.9477 27.7194 19.4476 27.2193C18.9475 26.7192 18.6665 26.0409 18.6665 25.3337C18.6665 24.6264 18.9475 23.9481 19.4476 23.448C19.9477 22.9479 20.6259 22.667 21.3332 22.667C22.0404 22.667 22.7187 22.9479 23.2188 23.448C23.7189 23.9481 23.9998 24.6264 23.9998 25.3337ZM21.9998 25.3337C21.9998 25.1568 21.9296 24.9873 21.8046 24.8623C21.6796 24.7372 21.51 24.667 21.3332 24.667C21.1564 24.667 20.9868 24.7372 20.8618 24.8623C20.7367 24.9873 20.6665 25.1568 20.6665 25.3337C20.6665 25.5105 20.7367 25.68 20.8618 25.8051C20.9868 25.9301 21.1564 26.0003 21.3332 26.0003C21.51 26.0003 21.6796 25.9301 21.8046 25.8051C21.9296 25.68 21.9998 25.5105 21.9998 25.3337Z" fill="#222222"/>
</svg>
