<svg width="28" height="28" viewBox="0 0 28 28" fill="none" xmlns="http://www.w3.org/2000/svg">
<path d="M10.5001 24.8889C11.574 24.8889 12.4446 24.0183 12.4446 22.9444C12.4446 21.8706 11.574 21 10.5001 21C9.42622 21 8.55566 21.8706 8.55566 22.9444C8.55566 24.0183 9.42622 24.8889 10.5001 24.8889Z" fill="#DB9630"/>
<path d="M20.6112 24.8889C21.6851 24.8889 22.5556 24.0183 22.5556 22.9444C22.5556 21.8706 21.6851 21 20.6112 21C19.5373 21 18.6667 21.8706 18.6667 22.9444C18.6667 24.0183 19.5373 24.8889 20.6112 24.8889Z" fill="#DB9630"/>
<path d="M25.7445 4.96975C25.672 4.87563 25.579 4.79935 25.4725 4.74677C25.366 4.69419 25.2488 4.6667 25.13 4.66642H7.16338L6.81338 3.55419C6.77493 3.43477 6.70817 3.32642 6.61878 3.23839C6.52939 3.15036 6.42004 3.08526 6.30005 3.04864L3.11116 2.06864C3.0131 2.03851 2.91007 2.02798 2.80795 2.03767C2.70583 2.04736 2.60662 2.07706 2.51598 2.12509C2.33292 2.22209 2.1959 2.38783 2.13505 2.58586C2.07419 2.78389 2.0945 2.99798 2.1915 3.18104C2.2885 3.36409 2.45424 3.50112 2.65227 3.56197L5.44449 4.41753L9.00671 15.672L7.73893 16.7142L7.63782 16.8153C7.3243 17.1783 7.14667 17.639 7.13532 18.1186C7.12397 18.5981 7.2796 19.0667 7.5756 19.4442C7.78759 19.702 8.05697 19.9066 8.3622 20.0417C8.66742 20.1767 9.00002 20.2385 9.33338 20.222H22.3145C22.5208 20.222 22.7186 20.14 22.8645 19.9942C23.0103 19.8483 23.0923 19.6505 23.0923 19.4442C23.0923 19.2379 23.0103 19.0401 22.8645 18.8942C22.7186 18.7484 22.5208 18.6664 22.3145 18.6664H9.20893C9.11937 18.6634 9.03211 18.6373 8.95558 18.5906C8.87905 18.544 8.81584 18.4784 8.77205 18.4002C8.72827 18.322 8.70538 18.2339 8.70562 18.1443C8.70585 18.0546 8.72919 17.9666 8.77338 17.8886L10.6478 16.3331H22.6489C22.8266 16.3383 23.0007 16.2824 23.1422 16.1749C23.2837 16.0673 23.3841 15.9145 23.4267 15.742L25.9156 5.63086C25.9393 5.51491 25.9361 5.39509 25.9065 5.28052C25.8768 5.16596 25.8214 5.05967 25.7445 4.96975Z" fill="#DB9630"/>
</svg>
