<svg width="74" height="74" viewBox="0 0 74 74" fill="none" xmlns="http://www.w3.org/2000/svg">
<path d="M55.5001 9.25C56.2553 9.2501 56.9842 9.52736 57.5486 10.0292C58.1129 10.531 58.4735 11.2226 58.5618 11.9726L58.5834 12.3333V61.6667C58.5826 62.4525 58.2816 63.2084 57.7421 63.7799C57.2026 64.3513 56.4653 64.6952 55.6808 64.7413C54.8963 64.7873 54.1237 64.5321 53.5211 64.0277C52.9185 63.5233 52.5312 62.8078 52.4383 62.0274L52.4168 61.6667V46.25H49.3334C48.5782 46.2499 47.8493 45.9726 47.2849 45.4708C46.7206 44.969 46.36 44.2774 46.2717 43.5274L46.2501 43.1667V24.6667C46.2501 17.8525 50.8751 9.25 55.5001 9.25ZM37.0001 9.25C37.7553 9.2501 38.4842 9.52736 39.0486 10.0292C39.6129 10.531 39.9735 11.2226 40.0618 11.9726L40.0834 12.3333V27.75C40.0831 30.4845 39.1744 33.1415 37.5001 35.3035C35.8258 37.4655 33.4808 39.0102 30.8334 39.6948V61.6667C30.8325 62.4525 30.5316 63.2084 29.9921 63.7799C29.4526 64.3513 28.7153 64.6952 27.9308 64.7413C27.1463 64.7873 26.3737 64.5321 25.7711 64.0277C25.1685 63.5233 24.7812 62.8078 24.6883 62.0274L24.6667 61.6667V39.6948C22.1244 39.0376 19.858 37.5864 18.1972 35.5524C16.5364 33.5184 15.5677 31.0076 15.4322 28.3852L15.4167 27.75V12.3333C15.4176 11.5475 15.7185 10.7916 16.258 10.2201C16.7975 9.64866 17.5349 9.30478 18.3194 9.25872C19.1039 9.21266 19.8764 9.46791 20.4791 9.97232C21.0817 10.4767 21.469 11.1922 21.5618 11.9726L21.5834 12.3333V27.75C21.5834 28.8324 21.8684 29.8958 22.4096 30.8332C22.9509 31.7707 23.7293 32.5491 24.6667 33.0903V12.3333C24.6676 11.5475 24.9685 10.7916 25.508 10.2201C26.0475 9.64866 26.7849 9.30478 27.5694 9.25872C28.3539 9.21266 29.1264 9.46791 29.7291 9.97232C30.3317 10.4767 30.719 11.1922 30.8118 11.9726L30.8334 12.3333L30.8365 33.0903C31.6969 32.593 32.4244 31.895 32.957 31.0559C33.4896 30.2168 33.8114 29.2614 33.8952 28.2711L33.9167 27.75V12.3333C33.9167 11.5156 34.2416 10.7313 34.8198 10.1531C35.3981 9.57485 36.1823 9.25 37.0001 9.25Z" fill="#51241A"/>
</svg>
