<svg width="48" height="48" viewBox="0 0 48 48" fill="none" xmlns="http://www.w3.org/2000/svg">
<path d="M30.738 11.055L41.34 21.66C41.7613 22.0819 41.998 22.6537 41.998 23.25C41.998 23.8462 41.7613 24.4181 41.34 24.84L30.735 35.448C30.3085 35.8454 29.7443 36.0618 29.1614 36.0515C28.5785 36.0412 28.0224 35.8051 27.6101 35.3929C27.1979 34.9806 26.9618 34.4245 26.9515 33.8416C26.9412 33.2587 27.1576 32.6945 27.555 32.268L34.32 25.5H8.25C7.70629 25.5 7.18097 25.3031 6.77121 24.9457C6.36144 24.5883 6.09494 24.0947 6.021 23.556L6 23.25C6 22.6533 6.23705 22.081 6.65901 21.659C7.08097 21.237 7.65326 21 8.25 21H34.32L27.555 14.235C27.3339 14.029 27.1566 13.7806 27.0337 13.5046C26.9107 13.2286 26.8446 12.9307 26.8392 12.6286C26.8339 12.3265 26.8895 12.0264 27.0026 11.7462C27.1158 11.466 27.2842 11.2115 27.4979 10.9979C27.7115 10.7842 27.966 10.6158 28.2462 10.5026C28.5264 10.3895 28.8265 10.3339 29.1286 10.3392C29.4307 10.3445 29.7286 10.4107 30.0046 10.5336C30.2806 10.6566 30.529 10.8339 30.735 11.055H30.738Z" fill="white"/>
</svg>
