<svg width="15" height="15" viewBox="0 0 15 15" fill="none" xmlns="http://www.w3.org/2000/svg">
<path d="M7.5 4.80469C6.96692 4.80469 6.44581 4.96276 6.00256 5.25893C5.55932 5.55509 5.21386 5.97604 5.00986 6.46855C4.80585 6.96105 4.75248 7.50299 4.85648 8.02583C4.96048 8.54867 5.21718 9.02893 5.59413 9.40587C5.97107 9.78282 6.45133 10.0395 6.97417 10.1435C7.49701 10.2475 8.03895 10.1941 8.53145 9.99014C9.02396 9.78614 9.44491 9.44068 9.74107 8.99744C10.0372 8.55419 10.1953 8.03308 10.1953 7.5C10.1945 6.78541 9.91028 6.10031 9.40498 5.59502C8.89969 5.08972 8.21459 4.80549 7.5 4.80469ZM7.5 8.78906C7.24505 8.78906 6.99582 8.71346 6.78384 8.57182C6.57185 8.43017 6.40663 8.22885 6.30906 7.9933C6.2115 7.75776 6.18597 7.49857 6.23571 7.24852C6.28545 6.99846 6.40822 6.76877 6.5885 6.5885C6.76877 6.40822 6.99846 6.28545 7.24852 6.23571C7.49857 6.18597 7.75776 6.2115 7.9933 6.30906C8.22885 6.40663 8.43017 6.57185 8.57182 6.78384C8.71346 6.99582 8.78906 7.24505 8.78906 7.5C8.78867 7.84176 8.65274 8.16941 8.41108 8.41108C8.16941 8.65274 7.84176 8.78867 7.5 8.78906ZM10.3125 1.17188H4.6875C3.75542 1.17293 2.86182 1.54366 2.20274 2.20274C1.54366 2.86182 1.17293 3.75542 1.17188 4.6875V10.3125C1.17293 11.2446 1.54366 12.1382 2.20274 12.7973C2.86182 13.4563 3.75542 13.8271 4.6875 13.8281H10.3125C11.2446 13.8271 12.1382 13.4563 12.7973 12.7973C13.4563 12.1382 13.8271 11.2446 13.8281 10.3125V4.6875C13.8271 3.75542 13.4563 2.86182 12.7973 2.20274C12.1382 1.54366 11.2446 1.17293 10.3125 1.17188ZM12.4219 10.3125C12.4213 10.8718 12.1988 11.4079 11.8034 11.8034C11.4079 12.1988 10.8718 12.4213 10.3125 12.4219H4.6875C4.12825 12.4213 3.59208 12.1988 3.19663 11.8034C2.80118 11.4079 2.57875 10.8718 2.57812 10.3125V4.6875C2.57875 4.12825 2.80118 3.59208 3.19663 3.19663C3.59208 2.80118 4.12825 2.57875 4.6875 2.57812H10.3125C10.8718 2.57875 11.4079 2.80118 11.8034 3.19663C12.1988 3.59208 12.4213 4.12825 12.4219 4.6875V10.3125ZM11.4844 4.45312C11.4844 4.63855 11.4294 4.8198 11.3264 4.97397C11.2234 5.12814 11.0769 5.2483 10.9056 5.31926C10.7343 5.39022 10.5458 5.40878 10.364 5.37261C10.1821 5.33644 10.0151 5.24715 9.88396 5.11604C9.75285 4.98493 9.66356 4.81788 9.62739 4.63602C9.59122 4.45416 9.60978 4.26567 9.68074 4.09436C9.75169 3.92305 9.87186 3.77664 10.026 3.67362C10.1802 3.57061 10.3615 3.51562 10.5469 3.51562C10.7954 3.5159 11.0337 3.61477 11.2095 3.79052C11.3852 3.96628 11.4841 4.20457 11.4844 4.45312Z" fill="#212542"/>
</svg>
