<svg width="86" height="38" viewBox="0 0 86 38" fill="none" xmlns="http://www.w3.org/2000/svg">
<path d="M41.728 5.912H37.248V8.568H41.6V10.68H37.248V15H35.04V3.8H41.728V5.912ZM53.2409 13.544C52.1102 14.664 50.7342 15.224 49.1129 15.224C47.4915 15.224 46.1155 14.664 44.9849 13.544C43.8649 12.4133 43.3049 11.032 43.3049 9.4C43.3049 7.768 43.8649 6.392 44.9849 5.272C46.1155 4.14133 47.4915 3.576 49.1129 3.576C50.7342 3.576 52.1102 4.14133 53.2409 5.272C54.3715 6.392 54.9369 7.768 54.9369 9.4C54.9369 11.032 54.3715 12.4133 53.2409 13.544ZM46.5369 12.04C47.2302 12.7227 48.0889 13.064 49.1129 13.064C50.1369 13.064 50.9955 12.7227 51.6889 12.04C52.3822 11.3467 52.7289 10.4667 52.7289 9.4C52.7289 8.33333 52.3822 7.45333 51.6889 6.76C50.9955 6.06667 50.1369 5.72 49.1129 5.72C48.0889 5.72 47.2302 6.06667 46.5369 6.76C45.8435 7.45333 45.4969 8.33333 45.4969 9.4C45.4969 10.4667 45.8435 11.3467 46.5369 12.04ZM66.3927 13.544C65.2621 14.664 63.8861 15.224 62.2647 15.224C60.6434 15.224 59.2674 14.664 58.1367 13.544C57.0167 12.4133 56.4567 11.032 56.4567 9.4C56.4567 7.768 57.0167 6.392 58.1367 5.272C59.2674 4.14133 60.6434 3.576 62.2647 3.576C63.8861 3.576 65.2621 4.14133 66.3927 5.272C67.5234 6.392 68.0887 7.768 68.0887 9.4C68.0887 11.032 67.5234 12.4133 66.3927 13.544ZM59.6887 12.04C60.3821 12.7227 61.2407 13.064 62.2647 13.064C63.2887 13.064 64.1474 12.7227 64.8407 12.04C65.5341 11.3467 65.8807 10.4667 65.8807 9.4C65.8807 8.33333 65.5341 7.45333 64.8407 6.76C64.1474 6.06667 63.2887 5.72 62.2647 5.72C61.2407 5.72 60.3821 6.06667 59.6887 6.76C58.9954 7.45333 58.6487 8.33333 58.6487 9.4C58.6487 10.4667 58.9954 11.3467 59.6887 12.04ZM74.5686 3.8C76.1046 3.8 77.3846 4.33867 78.4086 5.416C79.4433 6.49333 79.9606 7.82133 79.9606 9.4C79.9606 10.9787 79.4433 12.3067 78.4086 13.384C77.3846 14.4613 76.1046 15 74.5686 15H70.1206V3.8H74.5686ZM74.5686 12.888C75.5393 12.888 76.3286 12.568 76.9366 11.928C77.5446 11.2773 77.8486 10.4347 77.8486 9.4C77.8486 8.36533 77.5446 7.528 76.9366 6.888C76.3286 6.23733 75.5393 5.912 74.5686 5.912H72.3286V12.888H74.5686ZM46 22.8V34H43.808V26.736L40.656 31.936H40.4L37.248 26.752V34H35.04V22.8H37.312L40.528 28.096L43.728 22.8H46ZM55.7669 34L55.0949 31.984H50.6309L49.9589 34H47.5749L51.4949 22.8H54.2309L58.1669 34H55.7669ZM51.3349 29.92H54.4069L52.8709 25.344L51.3349 29.92ZM66.2144 22.8H68.4224V34H66.7424L61.9424 27.152V34H59.7344V22.8H61.4144L66.2144 29.632V22.8ZM70.98 22.8H73.188V34H70.98V22.8ZM82.9412 34L82.2692 31.984H77.8052L77.1332 34H74.7492L78.6692 22.8H81.4052L85.3412 34H82.9412ZM78.5092 29.92H81.5812L80.0452 25.344L78.5092 29.92Z" fill="#3C3C3C"/>
<g clip-path="url(#clip0)">
<path d="M23.25 25H0.75C0.546875 25 0.371094 24.9208 0.222656 24.7625C0.0742188 24.6042 0 24.4167 0 24.2C0 21.0667 0.910156 18.3958 2.73047 16.1875C4.55078 13.9792 6.89062 12.65 9.75 12.2C9.95312 12.2 10.1289 12.1208 10.2773 11.9625C10.4258 11.8042 10.5 11.6167 10.5 11.4C10.5 11.1833 10.4258 10.9958 10.2773 10.8375C10.1289 10.6792 9.95312 10.6 9.75 10.6C9.54688 10.6 9.37109 10.5208 9.22266 10.3625C9.07422 10.2042 9 10.0167 9 9.8C9 9.58333 9.07422 9.39583 9.22266 9.2375C9.37109 9.07917 9.54688 9 9.75 9H14.25C14.4531 9 14.6289 9.07917 14.7773 9.2375C14.9258 9.39583 15 9.58333 15 9.8C15 10.0167 14.9258 10.2042 14.7773 10.3625C14.6289 10.5208 14.4531 10.6 14.25 10.6C14.0469 10.6 13.8711 10.6792 13.7227 10.8375C13.5742 10.9958 13.5 11.1833 13.5 11.4C13.5 11.6167 13.5742 11.8042 13.7227 11.9625C13.8711 12.1208 14.0469 12.2 14.25 12.2C17.1094 12.65 19.4492 13.9792 21.2695 16.1875C23.0898 18.3958 24 21.0667 24 24.2C24 24.4167 23.9258 24.6042 23.7773 24.7625C23.6289 24.9208 23.4531 25 23.25 25ZM0.75 26.6H23.25C23.4531 26.6 23.6289 26.6792 23.7773 26.8375C23.9258 26.9958 24 27.1833 24 27.4C24 27.6167 23.9258 27.8042 23.7773 27.9625C23.6289 28.1208 23.4531 28.2 23.25 28.2H0.75C0.546875 28.2 0.371094 28.1208 0.222656 27.9625C0.0742188 27.8042 0 27.6167 0 27.4C0 27.1833 0.0742188 26.9958 0.222656 26.8375C0.371094 26.6792 0.546875 26.6 0.75 26.6Z" fill="#111111"/>
</g>
<defs>
<clipPath id="clip0">
<rect width="24" height="19.2" fill="white" transform="translate(0 9)"/>
</clipPath>
</defs>
</svg>
