<svg width="32" height="32" viewBox="0 0 32 32" fill="none" xmlns="http://www.w3.org/2000/svg">
<path d="M13.3334 24.0003C15.7 23.9998 17.9985 23.2076 19.8627 21.7497L25.7241 27.611L27.6094 25.7257L21.7481 19.8643C23.2067 17.9999 23.9995 15.7009 24.0001 13.3337C24.0001 7.45233 19.2147 2.66699 13.3334 2.66699C7.45208 2.66699 2.66675 7.45233 2.66675 13.3337C2.66675 19.215 7.45208 24.0003 13.3334 24.0003ZM13.3334 5.33366C17.7454 5.33366 21.3334 8.92166 21.3334 13.3337C21.3334 17.7457 17.7454 21.3337 13.3334 21.3337C8.92141 21.3337 5.33341 17.7457 5.33341 13.3337C5.33341 8.92166 8.92141 5.33366 13.3334 5.33366Z" fill="#222222"/>
</svg>
