<svg width="24" height="24" viewBox="0 0 24 24" fill="none" xmlns="http://www.w3.org/2000/svg">
<path d="M17.56 21.0002C17.4001 21.0008 17.2423 20.9631 17.1 20.8902L12 18.2202L6.90001 20.8902C6.7344 20.9773 6.54768 21.0162 6.36108 21.0024C6.17448 20.9887 5.99548 20.9228 5.84444 20.8124C5.69339 20.702 5.57635 20.5514 5.50662 20.3778C5.4369 20.2041 5.41728 20.0144 5.45001 19.8302L6.45001 14.2002L2.33001 10.2002C2.20146 10.0719 2.11028 9.91107 2.06623 9.7349C2.02219 9.55872 2.02695 9.37388 2.08001 9.2002C2.13797 9.02248 2.24458 8.86456 2.38776 8.74436C2.53093 8.62417 2.70493 8.54651 2.89001 8.5202L8.59001 7.6902L11.1 2.5602C11.1819 2.39113 11.3097 2.24855 11.4689 2.14878C11.6281 2.04901 11.8122 1.99609 12 1.99609C12.1879 1.99609 12.3719 2.04901 12.5311 2.14878C12.6903 2.24855 12.8181 2.39113 12.9 2.5602L15.44 7.6802L21.14 8.5102C21.3251 8.53651 21.4991 8.61417 21.6423 8.73436C21.7854 8.85456 21.892 9.01248 21.95 9.1902C22.0031 9.36388 22.0078 9.54872 21.9638 9.7249C21.9197 9.90107 21.8286 10.0619 21.7 10.1902L17.58 14.1902L18.58 19.8202C18.6157 20.0077 18.597 20.2015 18.5261 20.3787C18.4553 20.5559 18.3352 20.7091 18.18 20.8202C17.9989 20.9471 17.7809 21.0104 17.56 21.0002Z" fill="#A5A5A5"/>
</svg>
