<svg width="75" height="75" viewBox="0 0 75 75" fill="none" xmlns="http://www.w3.org/2000/svg">
<path d="M61.1684 39.5414C61.0629 39.573 60.9 39.6012 60.7219 39.6258C60.9516 38.1785 61.0852 37.016 61.1508 36.2906C61.193 36.007 61.2164 35.7234 61.2223 35.3824C61.2223 30.6129 55.7812 26.5172 47.4586 24.2238C48.1945 22.2457 48.266 19.7695 45.9445 17.393C42.7535 14.1293 44.8769 9.375 44.8769 9.375C44.8769 9.375 38.1738 15.6598 42.4078 19.9934C43.7285 21.3457 44.5055 22.5551 44.952 23.6074C42.0516 22.9758 38.8699 22.5504 35.4938 22.3687C36.3398 19.7191 36.2742 16.4801 33.3281 13.3699C29.073 8.88164 31.9031 2.34375 31.9031 2.34375C31.9031 2.34375 22.9676 10.9852 28.6102 16.943C30.5191 18.9574 31.5773 20.7422 32.1434 22.2691C32.0227 22.2691 31.9031 22.2656 31.7824 22.2656C28.5094 22.2656 25.3793 22.4953 22.4613 22.916C22.7566 21.2086 22.418 19.2691 20.5852 17.3941C17.3941 14.1305 19.5164 9.375 19.5164 9.375C19.5164 9.375 12.8145 15.6598 17.0473 19.9934C18.2906 21.2648 19.0582 22.4133 19.5152 23.4211C9.3 25.4602 2.34258 30.0047 2.34375 35.4387C2.34609 35.7211 2.37188 36 2.40352 36.225C2.7082 39.5355 4.21406 51.0867 10.8387 60.8074C12.3738 63.0645 14.6766 65.3848 17.6508 67.2738C18.3234 68.2301 19.3383 69.3059 20.8957 70.2996C22.4168 71.2652 26.0367 72.6562 31.7813 72.6562C37.5293 72.6562 41.1492 71.2641 42.668 70.2984C44.2207 69.307 45.2367 68.2336 45.9094 67.2773C47.8695 66.0418 49.6439 64.5337 51.1793 62.7984C51.2548 62.787 51.3268 62.759 51.3902 62.7164C57.2684 57.7816 72.6562 55.8352 72.6562 46.6137C72.6562 40.7895 68.8148 37.2914 61.1684 39.5414ZM31.7824 68.9602C22.4977 68.9602 15.8555 64.0594 12.7336 59.475C6.42773 50.2207 4.99102 39.1734 4.69336 35.9531C4.66619 35.764 4.65093 35.5734 4.64766 35.3824C4.64766 31.5598 10.5457 27.5484 20.1035 25.684C20.1891 27.2461 19.5164 28.125 19.5164 28.125C19.5164 28.125 20.673 27.0551 21.5613 25.4238C24.9403 24.8731 28.3588 24.6007 31.7824 24.6094C32.0883 24.6094 32.3777 24.6246 32.6777 24.6293C32.8371 26.8652 31.9031 28.125 31.9031 28.125C31.9031 28.125 33.3281 26.7633 34.4895 24.6668C38.5687 24.8273 42.2625 25.3441 45.4699 26.1141C45.4266 27.4055 44.8769 28.125 44.8769 28.125C44.8769 28.125 45.607 27.4406 46.3512 26.3449C54.1875 28.3992 58.9172 31.9734 58.916 35.4152C58.9148 35.5922 58.8973 35.7668 58.8645 36.007C58.5914 38.9859 57.3035 48.9328 51.9035 57.8086C51.4262 58.4783 50.9739 59.1655 50.5477 59.8688C47.3203 64.3359 40.8035 68.9602 31.7824 68.9602ZM69.4395 48.3973C67.4027 51.5285 60.5367 53.0273 56.1645 54.723C57.386 52.0937 58.3943 49.3705 59.1797 46.5797L59.7586 46.4426C59.7586 46.4426 60.0727 44.6367 61.5656 43.2797C63.4793 41.5453 69.9363 41.925 69.9363 46.1543C69.9363 46.9641 69.7535 47.7082 69.4395 48.3973Z" fill="#51241A"/>
<path d="M56.9757 37.1408C54.5499 32.1123 44.1964 28.333 31.7827 28.333C19.3702 28.333 9.01672 32.1123 6.58508 37.1408C9.01672 42.1705 19.3702 45.951 31.7827 45.951C44.1964 45.951 54.5499 42.1693 56.9757 37.1408ZM45.6343 39.6064C45.6343 39.6064 36.2382 44.6396 22.8659 44.6396C22.8659 44.6396 26.2327 43.0951 22.8659 41.7311C17.5257 39.774 12.2054 37.0541 14.507 34.1678C18.182 29.5717 30.2113 31.4303 31.7804 33.9229C32.9218 31.5838 45.257 29.4826 49.0562 34.1654C50.6089 36.0814 48.6894 37.9693 45.6343 39.6064Z" fill="#51241A"/>
<path d="M31.4079 35.4421C30.5149 33.4464 22.6985 31.8445 20.0137 35.4609C18.3345 37.7273 21.6837 39.941 25.088 41.5499C27.2278 42.6691 24.9192 43.8597 24.9192 43.8597C33.7259 43.9968 40.2063 40.0968 40.2063 40.0968H40.204C42.311 38.8312 43.6845 37.3523 42.7704 35.8136C40.538 32.0566 32.2915 33.5964 31.4079 35.4421ZM37.2638 40.0406C37.2638 40.0406 32.9266 42.6527 27.0333 42.5601C27.0333 42.5601 28.5766 41.7609 27.147 41.0156C24.8677 39.9374 22.6247 38.4538 23.752 36.9363C25.5462 34.5187 30.7809 35.591 31.3751 36.9269C31.9692 35.6906 37.4864 34.6581 38.9817 37.1742C39.5934 38.2042 38.6747 39.1933 37.2638 40.0406Z" fill="#51241A"/>
</svg>
