<svg width="60" height="45" viewBox="0 0 60 45" fill="none" xmlns="http://www.w3.org/2000/svg">
<path d="M58.125 37.5H1.875C1.36719 37.5 0.927734 37.3145 0.556641 36.9434C0.185547 36.5723 0 36.1328 0 35.625C0 28.2812 2.27539 22.0215 6.82617 16.8457C11.377 11.6699 17.2266 8.55469 24.375 7.5C24.8828 7.5 25.3223 7.31445 25.6934 6.94336C26.0645 6.57227 26.25 6.13281 26.25 5.625C26.25 5.11719 26.0645 4.67773 25.6934 4.30664C25.3223 3.93555 24.8828 3.75 24.375 3.75C23.8672 3.75 23.4277 3.56445 23.0566 3.19336C22.6855 2.82227 22.5 2.38281 22.5 1.875C22.5 1.36719 22.6855 0.927734 23.0566 0.556641C23.4277 0.185547 23.8672 0 24.375 0H35.625C36.1328 0 36.5723 0.185547 36.9434 0.556641C37.3145 0.927734 37.5 1.36719 37.5 1.875C37.5 2.38281 37.3145 2.82227 36.9434 3.19336C36.5723 3.56445 36.1328 3.75 35.625 3.75C35.1172 3.75 34.6777 3.93555 34.3066 4.30664C33.9355 4.67773 33.75 5.11719 33.75 5.625C33.75 6.13281 33.9355 6.57227 34.3066 6.94336C34.6777 7.31445 35.1172 7.5 35.625 7.5C42.7734 8.55469 48.623 11.6699 53.1738 16.8457C57.7246 22.0215 60 28.2812 60 35.625C60 36.1328 59.8145 36.5723 59.4434 36.9434C59.0723 37.3145 58.6328 37.5 58.125 37.5ZM1.875 41.25H58.125C58.6328 41.25 59.0723 41.4355 59.4434 41.8066C59.8145 42.1777 60 42.6172 60 43.125C60 43.6328 59.8145 44.0723 59.4434 44.4434C59.0723 44.8145 58.6328 45 58.125 45H1.875C1.36719 45 0.927734 44.8145 0.556641 44.4434C0.185547 44.0723 0 43.6328 0 43.125C0 42.6172 0.185547 42.1777 0.556641 41.8066C0.927734 41.4355 1.36719 41.25 1.875 41.25Z" fill="#51241A"/>
</svg>
