<svg width="16" height="16" viewBox="0 0 16 16" fill="none" xmlns="http://www.w3.org/2000/svg">
<path d="M14.5 3.97344C14.0219 4.17969 13.5015 4.32813 12.9656 4.38594C13.522 4.05537 13.9387 3.53313 14.1375 2.91719C13.6153 3.2278 13.0433 3.44561 12.4468 3.56094C12.1975 3.29442 11.896 3.0821 11.5611 2.93721C11.2261 2.79231 10.8649 2.71795 10.5 2.71876C9.02341 2.71876 7.83591 3.91563 7.83591 5.38438C7.83591 5.59063 7.86091 5.79688 7.90154 5.99532C5.6906 5.87969 3.71873 4.82344 2.40779 3.20626C2.16892 3.61425 2.04375 4.0788 2.04529 4.55157C2.04529 5.47657 2.5156 6.29219 3.23279 6.77188C2.81014 6.75524 2.39739 6.63907 2.0281 6.43282V6.46563C2.0281 7.76094 2.94373 8.83438 4.16404 9.08126C3.93491 9.14077 3.69921 9.17122 3.46248 9.17188C3.28904 9.17188 3.12498 9.15469 2.95935 9.13126C3.29685 10.1875 4.27966 10.9547 5.44998 10.9797C4.53435 11.6969 3.38748 12.1188 2.14216 12.1188C1.91873 12.1188 1.71248 12.1109 1.49841 12.0859C2.67966 12.8438 4.08123 13.2813 5.5906 13.2813C10.4906 13.2813 13.1719 9.22188 13.1719 5.69844C13.1719 5.58282 13.1719 5.46719 13.164 5.35157C13.6828 4.97188 14.1375 4.50157 14.5 3.97344Z" fill="#212542"/>
</svg>
