<svg width="14" height="13" viewBox="0 0 14 13" fill="none" xmlns="http://www.w3.org/2000/svg">
<g clip-path="url(#clip0)">
<path d="M0 6.2885V6.27011C0.169456 4.13716 0.960251 2.53744 2.33473 1.52612C3.69038 0.496421 5.159 -4.33439e-05 6.75941 -4.33439e-05C8.43515 -0.0184309 9.99791 0.533196 11.3912 1.63645C12.8033 2.72131 13.5 4.33942 13.5 6.4356V6.56431C13.5 8.67888 12.8033 10.2602 11.3912 11.3451C9.97908 12.4483 8.41632 13 6.74059 13H6.66527C5.0272 12.9816 3.52092 12.4299 2.12761 11.3267C0.73431 10.2418 0.0188285 8.56856 0 6.2885ZM6.34519 3.40165V0.496421H5.89331C5.79916 0.606746 5.72385 0.735459 5.64854 0.845784C5.57322 0.956109 5.49791 1.06643 5.42259 1.19515C5.34728 1.30547 5.25314 1.45257 5.19665 1.5629C5.12134 1.67322 5.06485 1.78355 5.00837 1.91226C4.8954 2.09614 4.80126 2.28001 4.72594 2.4455C4.6318 2.61099 4.55649 2.77648 4.5 2.92358C4.61297 2.99713 4.74477 3.08907 4.8954 3.14423C5.06485 3.19939 5.23431 3.25455 5.40377 3.29133C5.59205 3.3281 5.76151 3.34649 5.91213 3.36488C6.08159 3.38327 6.23222 3.40165 6.34519 3.40165ZM7.13598 0.496421V3.38327C7.23013 3.38327 7.3431 3.40165 7.45607 3.38327C7.56904 3.38327 7.70084 3.36488 7.81381 3.34649C8.02092 3.30972 8.26569 3.25455 8.45397 3.19939C8.66109 3.12584 8.84937 3.0339 8.98117 2.92358C8.75523 2.39034 8.51046 1.96742 8.26569 1.5629C8.02092 1.15837 7.73849 0.809009 7.43724 0.514808V0.496421H7.13598ZM5.10251 0.661909V0.643521C4.97071 0.698684 4.83891 0.790621 4.68828 0.845784C4.55649 0.900947 4.38703 0.974497 4.25523 1.04805C3.99163 1.17676 3.72803 1.32386 3.46444 1.48935C3.21967 1.65484 2.9749 1.83871 2.76778 2.02259C2.8431 2.09614 2.93724 2.16969 3.01255 2.22485C3.08787 2.28001 3.18201 2.35356 3.27615 2.42711C3.35146 2.46389 3.44561 2.51905 3.53975 2.5926C3.63389 2.64776 3.74686 2.72131 3.85983 2.79486C4.01046 2.46389 4.16109 2.11453 4.34937 1.80194C4.53766 1.47096 4.74477 1.15837 4.95188 0.882559C4.97071 0.845784 4.98954 0.809009 5.0272 0.772234C5.04603 0.753846 5.06485 0.698684 5.10251 0.661909ZM10.864 2.02259V2.0042C10.3933 1.65484 9.97908 1.36064 9.56485 1.17676C9.15063 0.992885 8.7364 0.809009 8.35983 0.661909C8.66109 0.956109 8.92469 1.32386 9.09414 1.67322C9.28243 2.04098 9.47071 2.42711 9.62134 2.79486C9.69665 2.75809 9.79079 2.72131 9.90377 2.64776C9.99791 2.5926 10.1297 2.53744 10.2427 2.48228C10.3556 2.40873 10.4498 2.33518 10.5628 2.26163C10.6757 2.16969 10.7887 2.09614 10.864 2.02259ZM10.5439 6.12301H12.7092C12.7092 5.44267 12.5586 4.79911 12.2762 4.13716C12.0126 3.49359 11.636 2.96035 11.1653 2.50066V2.48228C11.0711 2.62938 10.9393 2.75809 10.8075 2.85003C10.6569 2.94197 10.5251 3.01552 10.3745 3.08907C10.2803 3.14423 10.1862 3.21778 10.0921 3.25455C9.99791 3.30972 9.86611 3.34649 9.77197 3.40165C9.84728 3.54875 9.92259 3.71424 9.99791 3.86134C10.0544 4.02683 10.1485 4.21071 10.1862 4.37619C10.2992 4.6704 10.3745 4.98298 10.4498 5.29557C10.5063 5.57139 10.5439 5.86559 10.5439 6.12301ZM3.72803 3.40165V3.38327C3.57741 3.30972 3.40795 3.25455 3.27615 3.181C3.14435 3.08907 3.01255 2.99713 2.89958 2.92358C2.78661 2.86842 2.67364 2.79486 2.5795 2.72131C2.48536 2.64776 2.41004 2.57421 2.33473 2.50066C1.84519 2.96035 1.48745 3.4752 1.26151 4.08199C1.01674 4.68878 0.84728 5.36912 0.771967 6.10462H3.08787C3.08787 5.58977 3.16318 5.09331 3.29498 4.59685C3.40795 4.08199 3.57741 3.69586 3.72803 3.40165ZM6.34519 6.10462V3.99006C6.19456 4.00844 6.00628 4.00844 5.83682 3.99006C5.64854 3.97167 5.46025 3.91651 5.29079 3.86134C5.14017 3.82457 4.95188 3.78779 4.80126 3.73263C4.6318 3.69586 4.46234 3.6223 4.33054 3.54875C4.21757 3.73263 4.12343 3.95328 4.04812 4.19232C3.95397 4.41297 3.89749 4.65201 3.841 4.87266C3.80335 5.09331 3.78452 5.33235 3.76569 5.53461C3.74686 5.73687 3.72803 5.93914 3.72803 6.10462H6.34519ZM7.13598 4.02683V6.10462H9.92259C9.92259 5.9943 9.92259 5.86559 9.90377 5.71849C9.86611 5.58977 9.84728 5.42429 9.82845 5.27718C9.77197 5.05653 9.71548 4.8175 9.64017 4.59685C9.56485 4.39458 9.48954 4.19232 9.3954 4.02683C9.35774 3.93489 9.32008 3.82457 9.28243 3.75102C9.22594 3.65908 9.16946 3.60392 9.1318 3.54875C8.92469 3.69586 8.64226 3.78779 8.30335 3.86134C7.98326 3.93489 7.60669 4.00844 7.26778 4.02683H7.13598ZM3.08787 6.71141H0.771967C0.771967 7.024 0.828452 7.37337 0.922594 7.79628C1.01674 8.23758 1.20502 8.64211 1.41213 9.08341C1.50628 9.30406 1.61925 9.52471 1.73222 9.74536C1.86402 9.94762 2.01464 10.1683 2.16527 10.3705C2.27824 10.297 2.39121 10.2418 2.48536 10.1867C2.59833 10.1315 2.73013 10.0579 2.8431 10.0028C2.9749 9.94762 3.10669 9.89246 3.25732 9.81891C3.38912 9.76375 3.55858 9.6902 3.72803 9.61665C3.57741 9.15696 3.40795 8.71566 3.29498 8.21919C3.16318 7.74112 3.08787 7.26304 3.08787 6.7298V6.71141ZM6.34519 8.86276V6.71141H3.72803C3.72803 6.85851 3.74686 7.07916 3.78452 7.29982C3.80335 7.52047 3.85983 7.7595 3.89749 7.99854C3.9728 8.25597 4.02929 8.51339 4.1046 8.73405C4.17992 8.9547 4.25523 9.13857 4.33054 9.30406C4.66946 9.17535 5.00837 9.08341 5.23431 9.02825C5.47908 8.9547 5.70502 8.89953 5.93096 8.88115H6.13808C6.21339 8.86276 6.2887 8.86276 6.34519 8.86276ZM7.13598 6.71141V8.84437C7.26778 8.86276 7.41841 8.88115 7.56904 8.89953C7.73849 8.91792 7.94561 8.9547 8.11506 8.99147L8.39749 9.04663C8.49163 9.08341 8.6046 9.1018 8.69874 9.12018C8.81172 9.15696 8.92469 9.17535 9.03766 9.21212C9.1318 9.2489 9.22594 9.26728 9.30126 9.30406C9.54603 8.69727 9.69665 8.20081 9.79079 7.77789C9.88494 7.37337 9.92259 7.024 9.92259 6.7298V6.71141H7.13598ZM12.7092 6.7298V6.71141H10.5439V6.82174C10.5251 7.1711 10.4686 7.57563 10.3933 7.99854C10.318 8.40307 10.1485 8.88114 9.92259 9.46955C10.2238 9.61665 10.5063 9.76375 10.7322 9.91085C10.9582 10.0579 11.1653 10.2234 11.3159 10.3705C11.636 10.0579 11.9184 9.63504 12.1632 9.08341C12.4079 8.55017 12.5774 7.99854 12.6715 7.41014C12.6904 7.29982 12.6904 7.18949 12.7092 7.07916V6.7298ZM6.34519 12.3196V9.45116C5.87448 9.52471 5.47908 9.61665 5.17782 9.6902C4.87657 9.76375 4.65063 9.8373 4.5 9.91085C4.61297 10.1867 4.72594 10.4257 4.83891 10.6463C4.95188 10.8486 5.08368 11.0693 5.19665 11.2531C5.23431 11.3267 5.30962 11.4002 5.36611 11.4922C5.42259 11.5657 5.46025 11.6577 5.51674 11.7312C5.57322 11.8232 5.62971 11.9335 5.68619 12.0438C5.76151 12.1357 5.81799 12.2461 5.89331 12.3196H6.34519ZM7.13598 12.3196H7.56904C7.73849 12.1909 7.90795 12.007 8.03975 11.8048C8.19038 11.6025 8.35983 11.3635 8.4728 11.1612C8.6046 10.9222 8.7364 10.7015 8.84937 10.4809C8.96234 10.2602 9.05649 10.0579 9.1318 9.91085C8.92469 9.8373 8.64226 9.76375 8.35983 9.6902C8.07741 9.61665 7.68201 9.5431 7.13598 9.46955V12.3196ZM10.864 10.8118V10.7935C10.8264 10.7383 10.751 10.6647 10.6946 10.6096C10.6381 10.5544 10.5439 10.4809 10.4498 10.4257C10.3745 10.3705 10.2803 10.3154 10.1674 10.2602C10.0544 10.205 9.90377 10.1315 9.77197 10.0579C9.69665 10.205 9.56485 10.4625 9.37657 10.8118C9.20711 11.1612 8.90586 11.5841 8.52929 12.0438C9 11.9703 9.41423 11.8048 9.79079 11.5841C10.205 11.3819 10.5628 11.106 10.864 10.8118ZM3.85983 10.2234V10.205C3.72803 10.2786 3.52092 10.3705 3.31381 10.4625C3.08787 10.5544 2.8431 10.6647 2.61715 10.8118C2.74895 10.9222 2.88075 11.0325 2.99372 11.106C3.10669 11.198 3.23849 11.2715 3.35146 11.3451C3.55858 11.4738 3.80335 11.6025 4.04812 11.7128C4.29289 11.8232 4.59414 11.9335 4.97071 12.0438C4.83891 11.8967 4.74477 11.7128 4.65063 11.5657C4.55649 11.4186 4.44351 11.2715 4.34937 11.1244C4.25523 10.9773 4.17992 10.8118 4.1046 10.6647C4.01046 10.5176 3.93515 10.3705 3.85983 10.2234Z" fill="#292929"/>
</g>
<defs>
<clipPath id="clip0">
<rect width="13.5" height="13" fill="white"/>
</clipPath>
</defs>
</svg>
